# WaveFront *.obj file (generated by Cinema 4D)

mtllib ./未标题_1.mtl

v -100.000000 74.280338 100.000000
v -96.600000 177.303537 96.600000
v 100.000000 74.280338 100.000000
v -100.000000 173.903537 100.000000
v 100.000000 74.280338 -100.000000
v 96.600000 177.303537 96.600000
v -100.000000 74.280338 -100.000000
v 100.000000 173.903537 100.000000
v 96.600000 177.303537 -96.600000
v 100.000000 173.903537 -100.000000
v -96.600000 177.303537 -96.600000
v -100.000000 173.903537 -100.000000
v -96.600000 189.711249 96.600000
v -100.000000 193.111249 100.000000
v 96.600000 189.711249 96.600000
v 100.000000 193.111249 100.000000
v -100.000000 163.958306 -100.000000
v 100.000000 163.958306 -100.000000
v 100.000000 163.958306 100.000000
v -100.000000 163.958306 100.000000
v -96.500000 189.711249 -96.500000
v 96.500000 189.711249 -96.500000
v 96.500000 189.711249 96.500000
v -96.500000 189.711249 96.500000
v -96.500000 177.303537 -96.500000
v 96.500000 177.303537 -96.500000
v 96.500000 177.303537 96.500000
v -96.500000 177.303537 96.500000
v -96.600000 203.652424 96.600000
v -100.000000 200.252424 100.000000
v 96.600000 203.652424 96.600000
v 100.000000 200.252424 100.000000
v 96.600000 203.652424 -96.600000
v 100.000000 200.252424 -100.000000
v -96.600000 203.652424 -96.600000
v -100.000000 200.252424 -100.000000
v -100.000000 193.111249 -100.000000
v -96.600000 189.711249 -96.600000
v 100.000000 193.111249 -100.000000
v 96.600000 189.711249 -96.600000
v -100.000000 80.953592 -100.000000
v 100.000000 80.953592 -100.000000
v 100.000000 80.953592 100.000000
v -100.000000 80.953592 100.000000
v -102.300000 163.958306 -102.300000
v 102.300000 163.958306 -102.300000
v 102.300000 163.958306 102.300000
v -102.300000 163.958306 102.300000
v -102.300000 80.953592 -102.300000
v 102.300000 80.953592 -102.300000
v 102.300000 80.953592 102.300000
v -102.300000 80.953592 102.300000
v -100.300000 161.958306 -104.300000
v 100.300000 161.958306 -104.300000
v -100.300000 82.953592 -104.300000
v 100.300000 82.953592 -104.300000
v 104.300000 161.958306 -100.300000
v 104.300000 161.958306 100.300000
v 104.300000 82.953592 -100.300000
v 104.300000 82.953592 100.300000
v 100.300000 161.958306 104.300000
v -100.300000 161.958306 104.300000
v 100.300000 82.953592 104.300000
v -100.300000 82.953592 104.300000
v -104.300000 161.958306 -100.300000
v -104.300000 161.958306 100.300000
v -104.300000 82.953592 -100.300000
v -104.300000 82.953592 100.300000
# 68 vertices

vn 0.000000 0.000000 1.000000
vn 1.000000 0.000000 0.000000
vn 0.000000 0.000000 -1.000000
vn -1.000000 0.000000 0.000000
vn 0.000000 1.000000 0.000000
vn 0.000000 -1.000000 0.000000
vn -0.707106 0.707108 0.000000
vn 0.000000 0.707108 -0.707106
vn 0.707106 0.707108 0.000000
vn 0.000000 0.707108 0.707106
vn 0.000000 -0.707106 -0.707108
vn 0.707108 -0.707106 0.000000
vn 0.000000 -0.707106 0.707108
vn -0.707108 -0.707106 0.000000
vn 0.000000 0.707106 -0.707108
vn 0.707108 0.707106 0.000000
vn 0.000000 0.707106 0.707108
vn -0.707108 0.707106 0.000000
vn 0.707107 0.000000 -0.707107
vn 0.000000 0.707107 -0.707107
vn -0.707107 0.000000 -0.707107
vn 0.000000 -0.707107 -0.707107
vn 0.707107 0.000000 0.707107
vn 0.707107 0.707107 0.000000
vn 0.707107 -0.707107 0.000000
vn -0.707107 0.000000 0.707107
vn 0.000000 0.707107 0.707107
vn 0.000000 -0.707107 0.707107
vn -0.707107 0.707107 0.000000
vn -0.707107 0.000000 0.707107
vn -0.707107 -0.707107 0.000000
# 31 normals

vt 0.984661 0.215107 0.000000
vt 0.984661 0.204744 0.000000
vt 0.674061 0.204744 0.000000
vt 0.674061 0.215107 0.000000
vt 0.663697 0.215107 0.000000
vt 0.663697 0.525708 0.000000
vt 0.674061 0.525708 0.000000
vt 0.674061 0.536072 0.000000
vt 0.984661 0.536072 0.000000
vt 0.984661 0.525708 0.000000
vt 0.995025 0.525708 0.000000
vt 0.995025 0.215107 0.000000
vt 0.027688 0.510051 0.000000
vt 0.327681 0.510051 0.000000
vt 0.327681 0.210058 0.000000
vt 0.027688 0.210058 0.000000
vt 0.346236 0.204779 0.000000
vt 0.335147 0.204779 0.000000
vt 0.335147 0.515330 0.000000
vt 0.346236 0.515330 0.000000
vt 0.022409 0.191503 0.000000
vt 0.022409 0.202592 0.000000
vt 0.332960 0.202592 0.000000
vt 0.332960 0.191503 0.000000
vt 0.009133 0.515330 0.000000
vt 0.020222 0.515330 0.000000
vt 0.020222 0.204779 0.000000
vt 0.009133 0.204779 0.000000
vt 0.332960 0.528606 0.000000
vt 0.332960 0.517517 0.000000
vt 0.022409 0.517517 0.000000
vt 0.022409 0.528606 0.000000
vt 0.001667 0.154502 0.000000
vt 0.001667 0.174035 0.000000
vt 0.198417 0.174035 0.000000
vt 0.198417 0.154502 0.000000
vt 0.591917 0.154502 0.000000
vt 0.591917 0.174035 0.000000
vt 0.788667 0.174035 0.000000
vt 0.788667 0.154502 0.000000
vt 0.395167 0.154502 0.000000
vt 0.395167 0.174035 0.000000
vt 0.001667 0.129807 0.000000
vt 0.001667 0.145180 0.000000
vt 0.198417 0.145180 0.000000
vt 0.198417 0.129807 0.000000
vt 0.591917 0.129807 0.000000
vt 0.591917 0.145180 0.000000
vt 0.788667 0.145180 0.000000
vt 0.788667 0.129807 0.000000
vt 0.395167 0.129807 0.000000
vt 0.395167 0.145180 0.000000
vt 0.353857 0.210213 0.000000
vt 0.353702 0.210058 0.000000
vt 0.353702 0.510051 0.000000
vt 0.353857 0.509896 0.000000
vt 0.198417 0.154284 0.000000
vt 0.001667 0.154284 0.000000
vt 0.653539 0.210213 0.000000
vt 0.653695 0.210058 0.000000
vt 0.788667 0.154284 0.000000
vt 0.591917 0.154284 0.000000
vt 0.653539 0.509896 0.000000
vt 0.653695 0.510051 0.000000
vt 0.395167 0.154284 0.000000
vt 0.327681 0.184037 0.000000
vt 0.027688 0.184037 0.000000
vt 0.001667 0.210058 0.000000
vt 0.001667 0.510051 0.000000
vt 0.027688 0.536072 0.000000
vt 0.327681 0.536072 0.000000
vt 0.906871 0.671855 0.000000
vt 0.906871 0.549180 0.000000
vt 0.595387 0.549180 0.000000
vt 0.595387 0.671855 0.000000
vt 0.573496 0.679352 0.000000
vt 0.450820 0.679352 0.000000
vt 0.450820 0.990836 0.000000
vt 0.573496 0.990836 0.000000
vt 0.131840 0.549180 0.000000
vt 0.131840 0.671855 0.000000
vt 0.443323 0.671855 0.000000
vt 0.443323 0.549180 0.000000
vt 0.001667 0.990836 0.000000
vt 0.124342 0.990836 0.000000
vt 0.124342 0.679352 0.000000
vt 0.001667 0.679352 0.000000
vt 0.446429 0.993941 0.000000
vt 0.442857 0.990370 0.000000
vt 0.132306 0.990370 0.000000
vt 0.128734 0.993941 0.000000
vt 0.592282 0.676247 0.000000
vt 0.595853 0.679818 0.000000
vt 0.906405 0.679818 0.000000
vt 0.909976 0.676247 0.000000
vt 0.446429 0.676247 0.000000
vt 0.442857 0.679818 0.000000
vt 0.906405 0.990370 0.000000
vt 0.909976 0.993941 0.000000
vt 0.128734 0.676247 0.000000
vt 0.132306 0.679818 0.000000
vt 0.595853 0.990370 0.000000
vt 0.592282 0.993941 0.000000
vt 0.911262 0.674960 0.000000
vt 0.911262 0.546074 0.000000
vt 0.443323 0.998333 0.000000
vt 0.131840 0.998333 0.000000
vt 0.590995 0.546074 0.000000
vt 0.590995 0.674960 0.000000
vt 0.576601 0.674960 0.000000
vt 0.447715 0.674960 0.000000
vt 0.915654 0.549180 0.000000
vt 0.915654 0.671855 0.000000
vt 0.914368 0.679352 0.000000
vt 0.914368 0.990836 0.000000
vt 0.127448 0.546074 0.000000
vt 0.127448 0.674960 0.000000
vt 0.450820 0.670569 0.000000
vt 0.573496 0.670569 0.000000
vt 0.906871 0.998333 0.000000
vt 0.595387 0.998333 0.000000
vt 0.586603 0.671855 0.000000
vt 0.586603 0.549180 0.000000
vt 0.123056 0.671855 0.000000
vt 0.123056 0.549180 0.000000
vt 0.587890 0.990836 0.000000
vt 0.587890 0.679352 0.000000
# 127 texture coordinates

o ???
usemtl default
f 3/4/1 43/3/1 44/2/1 1/1/1
f 5/7/2 42/6/2 43/5/2 3/4/2
f 7/10/3 41/9/3 42/8/3 5/7/3
f 1/1/4 44/12/4 41/11/4 7/10/4
f 31/16/5 33/15/5 35/14/5 29/13/5
f 5/7/6 3/4/6 1/1/6 7/10/6
f 37/20/3 36/19/3 34/18/3 39/17/3
f 39/24/2 34/23/2 32/22/2 16/21/2
f 16/28/1 32/27/1 30/26/1 14/25/1
f 14/32/4 30/31/4 36/30/4 37/29/4
f 25/36/3 21/35/3 22/34/3 26/33/3
f 26/40/2 22/39/2 23/38/2 27/37/2
f 27/37/1 23/38/1 24/42/1 28/41/1
f 28/41/4 24/42/4 21/35/4 25/36/4
f 17/46/3 12/45/3 10/44/3 18/43/3
f 18/50/2 10/49/2 8/48/2 19/47/2
f 19/47/1 8/48/1 4/52/1 20/51/1
f 20/51/4 4/52/4 12/45/4 17/46/4
f 21/56/6 38/55/6 40/54/6 22/53/6
f 26/33/5 9/58/5 11/57/5 25/36/5
f 22/53/6 40/54/6 15/60/6 23/59/6
f 27/37/5 6/62/5 9/61/5 26/40/5
f 23/59/6 15/60/6 13/64/6 24/63/6
f 28/41/5 2/65/5 6/62/5 27/37/5
f 24/63/6 13/64/6 38/55/6 21/56/6
f 25/36/5 11/57/5 2/65/5 28/41/5
f 29/13/7 35/14/7 36/30/7 30/31/7
f 35/14/8 33/15/8 34/18/8 36/19/8
f 33/15/9 31/16/9 32/22/9 34/23/9
f 31/16/10 29/13/10 30/26/10 32/27/10
f 37/20/11 39/17/11 40/54/11 38/55/11
f 39/24/12 16/21/12 15/67/12 40/66/12
f 16/28/13 14/25/13 13/69/13 15/68/13
f 14/32/14 37/29/14 38/71/14 13/70/14
f 10/44/15 12/45/15 11/57/15 9/58/15
f 8/48/16 10/49/16 9/61/16 6/62/16
f 4/52/17 8/48/17 6/62/17 2/65/17
f 12/45/18 4/52/18 2/65/18 11/57/18
f 55/75/3 53/74/3 54/73/3 56/72/3
f 59/79/2 57/78/2 58/77/2 60/76/2
f 63/83/1 61/82/1 62/81/1 64/80/1
f 68/87/4 66/86/4 65/85/4 67/84/4
f 45/91/5 17/90/5 18/89/5 46/88/5
f 50/95/6 42/94/6 41/93/6 49/92/6
f 46/88/5 18/89/5 19/97/5 47/96/5
f 51/99/6 43/98/6 42/94/6 50/95/6
f 47/96/5 19/97/5 20/101/5 48/100/5
f 52/103/6 44/102/6 43/98/6 51/99/6
f 48/100/5 20/101/5 17/90/5 45/91/5
f 49/92/6 41/93/6 44/102/6 52/103/6
f 54/73/19 46/105/19 50/104/19 56/72/19
f 53/107/20 45/91/20 46/88/20 54/106/20
f 55/75/21 49/109/21 45/108/21 53/74/21
f 56/72/22 50/95/22 49/92/22 55/75/22
f 58/77/23 47/111/23 51/110/23 60/76/23
f 57/78/24 46/88/24 47/96/24 58/77/24
f 59/113/19 50/104/19 46/105/19 57/112/19
f 60/115/25 51/99/25 50/95/25 59/114/25
f 62/81/26 48/117/26 52/116/26 64/80/26
f 61/82/27 47/96/27 48/100/27 62/81/27
f 63/119/23 51/110/23 47/111/23 61/118/23
f 64/121/28 52/103/28 51/99/28 63/120/28
f 65/123/21 45/108/21 49/109/21 67/122/21
f 66/86/29 48/100/29 45/91/29 65/85/29
f 68/125/30 52/116/26 48/117/26 66/124/30
f 67/127/31 49/92/31 52/103/31 68/126/31

